# xmcd
#
# Track frame offsets:
#	150
#	21667
#	43435
#	61967
#	85500
#	110555
#	129270
#	146845
#	167465
#	186057
#	221710
#	240190
#
# Disc length: 3462 seconds
#
# Revision: 3916790515
# Processed by: cddbd v1.5.2PL0 Copyright (c) Steve Scherf et al.
# Submitted via: EZCDAudioConverter 8.0.2.1
#
DISCID=a60d840c
DTITLE=Various Artist - 20 Năm Nhìn Lại
DYEAR=1996
DGENRE=World Pop
TTITLE0=Khánh Ly - Vĩnh biệt Sài Gòn
TTITLE1=Hương Lan - Quê hương bỏ lại
TTITLE2=Elvis Phương - Một lần miên viễn xót xa
TTITLE3=Dalena - Đây thôn Vĩ Dạ
TTITLE4=Thanh Lan, Thái Châu - Liên Khúc
TTITLE5=Thanh Lan, Thái Châu - Hai sắc hoa Tigôn
TTITLE6=Nguyễn Hưng, Kỳ Duyên - Người xa người
TTITLE7=Mỹ Huyền - Một chút quà cho quê hương
TTITLE8=Bảo Hân, Phi Phi, Phượng Thúy - Tuổi mơ
TTITLE9=Thế Sơn, Thanh Hà - Dĩ vãng, Buồn
TTITLE10=Duy Quang - Tôi với trời bơ vơ
TTITLE11=Nguyễn Hưng, Thế Sơn, Mỹ Huyền, Thanh Hà - Đàn chim tha phương
EXTD=
EXTT0=
EXTT1=
EXTT2=
EXTT3=
EXTT4=
EXTT5=
EXTT6=
EXTT7=
EXTT8=
EXTT9=
EXTT10=
EXTT11=
PLAYORDER=
